HIERARCHY
ROOT Pelvis
{
	OFFSET 0.000000 0.000000 0.000000
	CHANNELS 6 Xposition Yposition Zposition Xrotation Yrotation Zrotation
	JOINT LeftUpLeg_virtual
	{
		OFFSET 0.000000 0.000000 0.000000
		CHANNELS 3 Xrotation Yrotation Zrotation
		JOINT LeftUpLeg
		{
			OFFSET 18.735201 -5.666702 -4.541200
			CHANNELS 3 Xrotation Yrotation Zrotation
			JOINT LeftLeg
			{
				OFFSET -0.021200 -31.938179 0.493100
				CHANNELS 3 Xrotation Yrotation Zrotation
				JOINT LeftFoot
				{
					OFFSET 0.021200 -31.938179 -4.336299
					CHANNELS 3 Xrotation Yrotation Zrotation
					JOINT LeftToeBase
					{
						OFFSET 0.943001 -26.722000 15.023500
						CHANNELS 3 Xrotation Yrotation Zrotation
						End Site
						{
							OFFSET 0 0 0
						}
					}
				}
			}
		}
	}
	JOINT RightUpLeg_virtual
	{
		OFFSET 0.000000 0.000000 0.000000
		CHANNELS 3 Xrotation Yrotation Zrotation
		JOINT RightUpLeg
		{
			OFFSET -18.735201 -5.666702 -4.541200
			CHANNELS 3 Xrotation Yrotation Zrotation
			JOINT RightLeg
			{
				OFFSET 0.018946 -31.938133 0.493100
				CHANNELS 3 Xrotation Yrotation Zrotation
				JOINT RightFoot
				{
					OFFSET -0.018946 -31.938126 -4.336299
					CHANNELS 3 Xrotation Yrotation Zrotation
					JOINT RightToeBase
					{
						OFFSET -0.943001 -26.722004 15.023500
						CHANNELS 3 Xrotation Yrotation Zrotation
						End Site
						{
							OFFSET 0 0 0
						}
					}
				}
			}
		}
	}
	JOINT Hips_virtual
	{
		OFFSET 0.000000 0.000000 0.000000
		CHANNELS 3 Xrotation Yrotation Zrotation
		JOINT Hips
		{
			OFFSET -0.000000 -0.000000 -0.000000
			CHANNELS 3 Xrotation Yrotation Zrotation
			JOINT Spine
			{
				OFFSET 0.000000 10.199997 -0.299500
				CHANNELS 3 Xrotation Yrotation Zrotation
				JOINT Spine1
				{
					OFFSET 0.000000 11.900002 -1.516600
					CHANNELS 3 Xrotation Yrotation Zrotation
					JOINT Spine2
					{
						OFFSET 0.000000 13.600006 -2.842500
						CHANNELS 3 Xrotation Yrotation Zrotation
						JOINT Neck_virtual
						{
							OFFSET 0.000000 0.000000 0.000000
							CHANNELS 3 Xrotation Yrotation Zrotation
							JOINT Neck
							{
								OFFSET 0.000000 9.624100 -2.890100
								CHANNELS 3 Xrotation Yrotation Zrotation
								JOINT Head
								{
									OFFSET 0.000000 14.068802 -1.351900
									CHANNELS 3 Xrotation Yrotation Zrotation
									End Site
									{
										OFFSET 0 0 0
									}
								}
							}
						}
						JOINT LeftShoulder_virtual
						{
							OFFSET 0.000000 0.000000 0.000000
							CHANNELS 3 Xrotation Yrotation Zrotation
							JOINT LeftShoulder
							{
								OFFSET 15.263000 10.923401 -0.547700
								CHANNELS 3 Xrotation Yrotation Zrotation
								JOINT LeftArm
								{
									OFFSET 25.438599 -2.830597 -13.032500
									CHANNELS 3 Xrotation Yrotation Zrotation
									JOINT LeftForeArm
									{
										OFFSET 29.960503 0.000000 0.000000
										CHANNELS 3 Xrotation Yrotation Zrotation
										JOINT LeftHand
										{
											OFFSET 27.849251 0.000000 0.000000
											CHANNELS 3 Xrotation Yrotation Zrotation
											End Site
											{
												OFFSET 0 0 0
											}
										}
									}
								}
							}
						}
						JOINT RightShoulder_virtual
						{
							OFFSET 0.000000 0.000000 0.000000
							CHANNELS 3 Xrotation Yrotation Zrotation
							JOINT RightShoulder
							{
								OFFSET -15.263000 10.923401 -0.547700
								CHANNELS 3 Xrotation Yrotation Zrotation
								JOINT RightArm
								{
									OFFSET -25.438599 -2.830597 -13.032500
									CHANNELS 3 Xrotation Yrotation Zrotation
									JOINT RightForeArm
									{
										OFFSET -29.960503 0.000000 0.000000
										CHANNELS 3 Xrotation Yrotation Zrotation
										JOINT RightHand
										{
											OFFSET -27.849251 0.000000 0.000000
											CHANNELS 3 Xrotation Yrotation Zrotation
											End Site
											{
												OFFSET 0 0 0
											}
										}
									}
								}
							}
						}
					}
				}
			}
		}
	}
}
MOTION
Frames: 11
Frame Time: 0.03333333
-7.296784 89.975327 81.811264 0.000000 0.000000 0.000000 15.018314 -21.220713 -7.388272 -19.986465 9.952953 4.461157 37.335218 0.914733 1.387886 -12.937340 0.318467 -2.787621 0.000000 0.000000 0.000000 -2.876689 17.569407 1.926125 -36.306557 0.734378 -13.330060 60.116613 -3.256960 1.738016 7.063128 -6.057212 11.679227 0.000000 0.000000 0.000000 10.336900 6.983790 -0.705614 25.226055 8.193739 -7.873509 7.617172 0.822117 -2.525815 1.896791 0.937327 -0.908777 0.000000 0.000000 0.000000 1.041635 0.661974 -0.448055 -2.801896 0.369070 0.065455 0.000000 0.000000 0.000000 2.739159 2.025706 -1.961224 0.757902 2.262767 -14.433679 -3.486845 -7.401990 -52.929984 0.364046 -51.908895 -1.700046 0.000000 0.000000 0.000000 3.715313 1.863227 -0.062064 -0.277595 1.798256 12.530047 3.172824 -5.180716 40.353915 4.042456 51.979673 -3.120816 0.000000 0.000000 0.000000 
-7.307246 89.766998 84.384247 0.000000 0.000000 0.000000 16.193989 -21.473083 -7.226343 -18.105074 9.960787 4.107669 36.051323 0.858154 1.327548 -14.032969 0.343295 -2.927745 0.000000 0.000000 0.000000 -3.625515 18.755674 2.131826 -37.244987 1.118388 -13.189365 58.016262 -3.896121 1.619969 5.381875 -6.839819 10.942196 0.000000 0.000000 0.000000 10.343084 7.286376 -0.756531 25.227953 8.527266 -7.911908 7.686593 0.617918 -2.504447 1.926787 0.843111 -0.892160 0.000000 0.000000 0.000000 1.007744 0.652602 -0.484172 -2.801287 0.370895 0.039334 0.000000 0.000000 0.000000 2.816907 2.013890 -1.972199 0.832339 2.255665 -14.579358 -3.788723 -7.374066 -52.906956 0.242801 -51.864830 -1.768661 0.000000 0.000000 0.000000 3.694931 1.806598 -0.083742 -0.262178 1.632439 12.369221 2.999272 -5.202873 40.339128 3.983605 51.991093 -3.119502 0.000000 0.000000 0.000000 
-7.261587 89.504204 86.916992 0.000000 0.000000 0.000000 17.383455 -21.679872 -6.990372 -16.243954 9.960386 3.851406 34.825943 0.899435 1.275909 -15.078512 0.453752 -2.993502 0.000000 0.000000 0.000000 -4.367091 20.012934 2.539098 -38.138335 1.450168 -12.873790 56.066994 -4.354583 1.544211 3.777918 -7.430119 10.446387 0.000000 0.000000 0.000000 10.354050 7.630720 -0.804676 25.260891 8.935149 -7.931682 7.761642 0.442082 -2.515542 1.960479 0.761942 -0.896498 0.000000 0.000000 0.000000 0.981624 0.661308 -0.527793 -2.800722 0.381471 0.013360 0.000000 0.000000 0.000000 2.910849 2.014353 -1.991329 0.913367 2.288784 -14.729720 -4.038381 -7.319059 -52.834416 0.162513 -51.791757 -1.783678 0.000000 0.000000 0.000000 3.671348 1.755832 -0.121562 -0.254061 1.460295 12.174495 2.846219 -5.127166 40.424563 3.923959 52.171936 -3.080852 0.000000 0.000000 0.000000 
-7.146161 89.180832 89.509178 0.000000 0.000000 0.000000 18.525334 -21.894327 -6.691104 -14.477851 9.935497 3.686958 33.731535 1.021083 1.181528 -16.031636 0.656115 -3.074850 0.000000 0.000000 0.000000 -5.065713 21.033327 2.692151 -39.086348 1.791997 -12.855073 54.177170 -4.923582 1.324790 2.038075 -8.054824 9.625030 0.000000 0.000000 0.000000 10.344594 7.927499 -0.848847 25.221826 9.270067 -7.962343 7.844593 0.285249 -2.571214 1.998669 0.690987 -0.927944 0.000000 0.000000 0.000000 0.963624 0.691343 -0.567160 -2.801018 0.406129 -0.008206 0.000000 0.000000 0.000000 3.022219 2.022759 -2.014476 1.006789 2.359239 -14.879970 -4.186096 -7.249973 -52.734422 0.127338 -51.684304 -1.763626 0.000000 0.000000 0.000000 3.641720 1.705972 -0.165694 -0.259697 1.267563 11.964151 2.717635 -5.008471 40.586920 3.867671 52.482211 -3.016716 0.000000 0.000000 0.000000 
-7.138665 88.756996 92.054794 0.000000 0.000000 0.000000 19.579632 -22.089687 -6.489891 -12.825857 9.927584 3.447859 32.692741 1.160585 0.966646 -16.950218 0.933425 -3.322289 0.000000 0.000000 0.000000 -5.682157 22.245590 3.113750 -39.880047 2.072577 -12.592588 52.667247 -5.190698 1.211820 0.597196 -8.375929 9.243214 0.000000 0.000000 0.000000 10.315806 8.145644 -0.883107 25.085927 9.429792 -7.934083 7.922443 0.146193 -2.656366 2.037584 0.627351 -0.978273 0.000000 0.000000 0.000000 0.957907 0.732504 -0.604356 -2.796626 0.437539 -0.026214 0.000000 0.000000 0.000000 3.140050 2.035856 -2.039444 1.104029 2.453948 -15.016922 -4.196087 -7.179193 -52.628670 0.168237 -51.550460 -1.699071 0.000000 0.000000 0.000000 3.615974 1.660442 -0.215578 -0.259577 1.076289 11.747644 2.644715 -4.738097 40.796973 3.858778 52.985087 -2.960763 0.000000 0.000000 0.000000 
-7.129674 88.232048 94.503540 0.000000 0.000000 0.000000 20.595355 -22.402034 -6.315013 -11.298318 9.908409 3.199343 31.698334 1.425757 0.746522 -17.840924 1.324985 -3.504557 0.000000 0.000000 0.000000 -6.406383 23.751016 3.554299 -40.724586 2.449215 -12.304117 50.925173 -5.232435 1.002169 -0.968170 -8.423956 8.890742 0.000000 0.000000 0.000000 10.277208 8.298515 -0.913503 24.871951 9.554521 -8.047861 8.010807 0.013192 -2.758766 2.080354 0.562294 -1.040905 0.000000 0.000000 0.000000 0.959236 0.782424 -0.640358 -2.795497 0.475507 -0.041105 0.000000 0.000000 0.000000 3.259206 2.051337 -2.065498 1.195715 2.569194 -15.137125 -4.131148 -7.115807 -52.542009 0.225948 -51.404458 -1.629487 0.000000 0.000000 0.000000 3.601872 1.617539 -0.266101 -0.260201 0.889579 11.544124 2.637392 -4.334462 41.037283 3.902873 53.678477 -2.926176 0.000000 0.000000 0.000000 
-7.108334 87.719177 96.928879 0.000000 0.000000 0.000000 21.594565 -22.892398 -6.129668 -9.843408 9.850693 2.945147 30.939473 1.722065 0.482144 -18.558944 1.755795 -3.732830 0.000000 0.000000 0.000000 -7.198704 25.373847 4.032309 -41.598444 2.859765 -11.995115 49.153747 -4.923934 0.758477 -2.556178 -8.092694 8.760748 0.000000 0.000000 0.000000 10.262750 8.404640 -0.938188 24.763076 9.625284 -8.090343 8.078148 -0.132957 -2.837823 2.110631 0.488016 -1.092132 0.000000 0.000000 0.000000 0.941761 0.818713 -0.662474 -2.801734 0.508760 -0.048213 0.000000 0.000000 0.000000 3.357381 2.055161 -2.078171 1.259293 2.668202 -15.194075 -4.053211 -7.109267 -52.447780 0.323376 -51.305690 -1.536018 0.000000 0.000000 0.000000 3.570555 1.566500 -0.308125 -0.274600 0.695782 11.377823 2.661996 -3.885660 41.184179 4.002473 54.430242 -2.961974 0.000000 0.000000 0.000000 
-7.104503 87.270622 99.453590 0.000000 0.000000 0.000000 22.524726 -23.230196 -5.853290 -8.518422 9.801359 2.849790 30.462538 2.049616 0.212129 -19.018648 2.205159 -3.946506 0.000000 0.000000 0.000000 -8.122359 26.635883 4.393293 -42.657687 3.243311 -11.838309 47.141710 -4.694515 0.423652 -4.338844 -7.813845 8.406921 0.000000 0.000000 0.000000 10.254545 8.408662 -0.951083 24.598754 9.600999 -8.176511 8.192579 -0.293991 -2.911531 2.173604 0.402798 -1.140917 0.000000 0.000000 0.000000 0.955151 0.846729 -0.683796 -2.793680 0.541097 -0.055125 0.000000 0.000000 0.000000 3.451290 2.048655 -2.088617 1.321188 2.790585 -15.225212 -3.819456 -7.165779 -52.394709 0.500122 -51.180506 -1.434901 0.000000 0.000000 0.000000 3.542545 1.503723 -0.355356 -0.289008 0.514122 11.178047 2.837556 -3.262497 41.292564 4.235448 55.358297 -3.093244 0.000000 0.000000 0.000000 
-7.168301 86.829903 102.149773 0.000000 0.000000 0.000000 23.324162 -23.423804 -5.528781 -7.423292 9.770341 2.897026 30.381146 2.474652 -0.039200 -19.131491 2.718600 -4.072222 0.000000 0.000000 0.000000 -9.087124 27.310546 4.562005 -43.844658 3.545802 -11.892227 45.170141 -4.580221 0.016516 -6.098600 -7.611366 7.835135 0.000000 0.000000 0.000000 10.293015 8.380474 -0.961592 24.559169 9.550858 -8.383405 8.325245 -0.456375 -2.949541 2.240719 0.313602 -1.167260 0.000000 0.000000 0.000000 0.964564 0.875081 -0.703094 -2.791394 0.574990 -0.060996 0.000000 0.000000 0.000000 3.523695 2.035739 -2.109470 1.359856 2.894059 -15.291504 -3.557457 -7.253068 -52.355610 0.672441 -51.093445 -1.349499 0.000000 0.000000 0.000000 3.475895 1.437269 -0.384290 -0.350741 0.307644 11.032158 2.968718 -2.692165 41.328436 4.428908 56.173538 -3.210155 0.000000 0.000000 0.000000 
-7.277730 86.449776 104.922523 0.000000 0.000000 0.000000 23.896511 -23.666530 -5.109408 -6.681864 9.688267 3.118999 30.643767 2.958622 -0.201176 -18.946480 3.229473 -4.030895 0.000000 0.000000 0.000000 -9.936834 27.702308 4.767455 -44.901612 3.734093 -11.913732 43.594382 -4.465839 -0.342169 -7.524747 -7.406245 7.338365 0.000000 0.000000 0.000000 10.314431 8.245774 -0.949514 24.471934 9.448919 -8.401810 8.377233 -0.618438 -2.899014 2.253216 0.224361 -1.137758 0.000000 0.000000 0.000000 0.929524 0.886466 -0.677091 -2.811691 0.598545 -0.045511 0.000000 0.000000 0.000000 3.579211 2.011444 -2.087540 1.382238 3.008861 -15.202577 -3.400944 -7.284915 -52.233626 0.776967 -51.018733 -1.287604 0.000000 0.000000 0.000000 3.405847 1.369552 -0.375956 -0.437708 0.157481 10.977644 3.177843 -2.114260 41.264482 4.696242 56.956903 -3.406504 0.000000 0.000000 0.000000 
-7.321826 86.027313 107.715744 0.000000 0.000000 0.000000 24.242040 -24.044306 -4.777941 -6.250676 9.567957 3.283475 31.375150 3.319048 -0.520740 -18.402375 3.695806 -4.273581 0.000000 0.000000 0.000000 -10.688554 27.605436 4.831446 -45.881495 3.824142 -12.037647 42.226453 -4.378493 -0.673457 -8.757144 -7.227585 6.863178 0.000000 0.000000 0.000000 10.260851 8.204036 -0.934118 23.940155 9.556722 -8.561087 8.340808 -0.765933 -2.882397 2.238346 0.138369 -1.126240 0.000000 0.000000 0.000000 0.862722 0.877390 -0.679758 -2.843468 0.605252 -0.038262 0.000000 0.000000 0.000000 3.591104 1.980935 -2.091262 1.372210 3.087303 -15.154972 -2.993373 -7.226480 -52.145472 0.998721 -50.823991 -1.163486 0.000000 0.000000 0.000000 3.290773 1.301113 -0.387171 -0.558827 -0.036299 10.892955 3.417733 -1.517754 41.246471 4.967528 57.792334 -3.581209 0.000000 0.000000 0.000000 
